<?xml version="1.0" encoding="UTF-8"?>
<!DOCTYPE svg PUBLIC "-//W3C//DTD SVG 1.1//EN" "http://www.w3.org/Graphics/SVG/1.1/DTD/svg11.dtd">
<svg xmlns="http://www.w3.org/2000/svg" xml:space="preserve" width="191px" height="191px" version="1.1" shape-rendering="geometricPrecision" text-rendering="geometricPrecision" image-rendering="optimizeQuality" fill-rule="evenodd" clip-rule="evenodd"
viewBox="0 0 424 424"
 xmlns:xlink="http://www.w3.org/1999/xlink">
  <g>
    <rect fill="none" width="424" height="424"/>
    <circle fill="#009B4C" stroke="#009B4C" stroke-width="26.2254" cx="212" cy="212" r="185"/>
    <path fill="white" fill-rule="nonzero" d="M212 80c-16,0 -24,7 -24,21 0,4 1,15 4,31 3,18 6,30 6,36 5,30 8,56 8,78 0,8 -1,15 -1,21 0,4 3,5 10,5 2,0 4,-1 4,-3 -1,-6 -1,-13 -1,-21 0,-23 2,-49 7,-78 0,-1 3,-15 8,-41 2,-15 4,-24 4,-28 0,-14 -9,-21 -25,-21zm0 218c-6,0 -12,2 -17,7 -4,5 -6,10 -6,16 0,7 3,12 8,17 4,4 10,6 15,6 7,0 13,-2 18,-8 4,-4 6,-9 6,-15 0,-7 -3,-13 -8,-17 -5,-4 -10,-6 -16,-6z"/>
  </g>
</svg>
