<?xml version="1.0" encoding="UTF-8"?>
<!DOCTYPE svg PUBLIC "-//W3C//DTD SVG 1.1//EN" "http://www.w3.org/Graphics/SVG/1.1/DTD/svg11.dtd">
<svg xmlns="http://www.w3.org/2000/svg" xml:space="preserve" width="191px" height="191px" version="1.1" shape-rendering="geometricPrecision" text-rendering="geometricPrecision" image-rendering="optimizeQuality" fill-rule="evenodd" clip-rule="evenodd"
viewBox="0 0 394 394"
 xmlns:xlink="http://www.w3.org/1999/xlink">
  <g>
    <rect fill="none" width="394" height="394"/>
    <rect fill="#00A2E9" stroke="#00A2E9" stroke-width="4.87201" transform="matrix(1.76028 -1.76031 1.76028 1.76031 -8.98338 196.967)" width="117" height="117" rx="27" ry="27"/>
    <path fill="white" fill-rule="nonzero" d="M157 171c-5,0 -8,-1 -11,-4 -3,-3 -5,-8 -5,-16 0,-13 6,-25 17,-36 11,-10 24,-16 40,-16 16,0 29,5 39,14 11,10 16,22 16,38 0,8 -2,15 -5,22 -3,7 -9,13 -19,19 -11,7 -19,12 -24,16 -5,4 -7,10 -7,18l0 20 -9 0 0 -22c0,-8 2,-14 4,-19 3,-5 7,-10 14,-14 11,-7 18,-14 21,-20 3,-5 5,-13 5,-22 0,-13 -3,-24 -9,-30 -6,-7 -16,-10 -28,-10 -13,0 -23,3 -31,10 -7,7 -11,14 -11,21 0,2 1,4 2,5 1,1 3,2 5,3 3,2 5,4 6,6 1,2 2,5 2,8 0,3 -1,6 -4,7 -2,2 -5,2 -8,2zm53 108c0,5 -1,8 -4,11 -3,3 -7,5 -11,5 -4,0 -8,-2 -11,-5 -3,-3 -4,-6 -4,-11 0,-4 1,-7 4,-10 3,-3 7,-5 11,-5 4,0 8,2 11,5 3,3 4,6 4,10z"/>
  </g>
</svg>
