<?xml version="1.0" encoding="UTF-8"?>
<!DOCTYPE svg PUBLIC "-//W3C//DTD SVG 1.1//EN" "http://www.w3.org/Graphics/SVG/1.1/DTD/svg11.dtd">
<svg xmlns="http://www.w3.org/2000/svg" xml:space="preserve" width="191px" height="191px" version="1.1" shape-rendering="geometricPrecision" text-rendering="geometricPrecision" image-rendering="optimizeQuality" fill-rule="evenodd" clip-rule="evenodd"
viewBox="0 0 459 459"
 xmlns:xlink="http://www.w3.org/1999/xlink">
  <g>
    <rect fill="none" width="459" height="459"/>
    <path fill="#F08519" d="M227 43c7,0 19,2 23,8l95 165 98 170c6,10 -5,30 -16,30l-197 0 -197 0c-12,0 -23,-20 -17,-30l98 -170 96 -165c3,-6 11,-8 17,-8z"/>
    <path fill="white" fill-rule="nonzero" d="M230 129c15,0 22,7 22,19 0,5 -2,14 -4,29 -3,16 -5,27 -6,32 -4,28 -7,52 -7,71 0,7 1,14 1,19 0,4 -3,6 -9,6 -2,0 -3,-2 -3,-4 0,-5 1,-11 1,-19 0,-21 -3,-44 -7,-70 0,-1 -3,-14 -7,-38 -2,-13 -4,-22 -4,-26 0,-12 8,-19 23,-19zm-1 199c7,0 12,2 16,7 4,4 5,8 5,14 0,6 -2,11 -7,15 -4,4 -8,6 -14,6 -6,0 -11,-3 -15,-7 -4,-5 -6,-9 -6,-14 0,-7 3,-12 7,-16 4,-4 9,-5 14,-5z"/>
  </g>
</svg>
